# xmcd
#
# Track frame offsets: 
#        150
#        79624
#        123024
#        178553
#        184958
#
# Disc length: 3258 seconds
#
# Revision: 0
# Processed by: cddbd v1.5.2PL0 Copyright (c) Steve Scherf et al.
# Submitted via: ExactAudioCopy v0.99pb4
#
DISCID=340cb805
DTITLE=Derek Trucks Band - Wanee Festival 2006 - cd2
DYEAR=2006
DGENRE=Blues
TTITLE0=Soul stew
TTITLE1=Everything is everything
TTITLE2=The weight
TTITLE3=Spirit in the dark
TTITLE4=Feel so bad
EXTD=
EXTT0=
EXTT1=
EXTT2=
EXTT3=
EXTT4=
PLAYORDER=
